<svg xmlns="http://www.w3.org/2000/svg" viewBox="0 0 800 480" fill="none">
  <rect width="800" height="480" rx="40" fill="url(#bg)"/>
  <circle cx="620" cy="110" r="120" fill="url(#glow)" opacity=".28"/>
  <circle cx="170" cy="380" r="140" fill="#F59E0B" opacity=".12"/>
  <rect x="145" y="92" width="510" height="296" rx="36" fill="#141B2D" stroke="rgba(255,255,255,.18)"/>
  <rect x="180" y="128" width="440" height="224" rx="28" fill="#1E293B"/>
  <circle cx="400" cy="240" r="88" fill="#F59E0B"/>
  <circle cx="400" cy="240" r="66" fill="#111827"/>
  <path d="M386 182h28c36 0 54 15 54 39 0 14-8 24-20 30 18 6 28 18 28 36 0 31-24 49-67 49h-23v26h-20v-26h-18v-19h18V201h-18v-19h18v-24h20v24Zm0 19v42h25c22 0 35-7 35-22 0-13-10-20-31-20h-29Zm0 61v55h28c27 0 40-9 40-27 0-18-14-28-42-28h-26Z" fill="#F59E0B"/>
  <text x="400" y="430" fill="#F8FAFC" font-family="Arial, sans-serif" font-size="34" text-anchor="middle">Bitcoin Vault</text>
  <defs>
    <linearGradient id="bg" x1="66" y1="40" x2="728" y2="454" gradientUnits="userSpaceOnUse">
      <stop stop-color="#2B1904"/>
      <stop offset=".48" stop-color="#111827"/>
      <stop offset="1" stop-color="#3B1F08"/>
    </linearGradient>
    <radialGradient id="glow" cx="0" cy="0" r="1" gradientUnits="userSpaceOnUse" gradientTransform="translate(620 110) rotate(90) scale(120)">
      <stop stop-color="#FBBF24"/>
      <stop offset="1" stop-color="#FBBF24" stop-opacity="0"/>
    </radialGradient>
  </defs>
</svg>
